<?xml version="1.0" encoding="UTF-8"?>
<svg width="65px" height="65px" viewBox="0 0 65 65" version="1.1" xmlns="http://www.w3.org/2000/svg" xmlns:xlink="http://www.w3.org/1999/xlink">
    <!-- Generator: Sketch 46 (44423) - http://www.bohemiancoding.com/sketch -->
    <title>Group 13</title>
    <desc>Created with Sketch.</desc>
    <defs></defs>
    <g id="V2" stroke="none" stroke-width="1" fill="none" fill-rule="evenodd">
        <g id="Main-Page-2" transform="translate(-668.000000, -1724.000000)">
            <g id="Always-Improving-Section-Copy" transform="translate(547.000000, 1724.000000)">
                <g id="Toggle-Button-Copy" transform="translate(121.000000, 0.000000)">
                    <g id="Group-13">
                        <g id="Arrow-Button" fill="#FFB1B3">
                            <g id="Group">
                                <circle id="Oval-9" cx="32.5" cy="32.5" r="32.5"></circle>
                            </g>
                        </g>
                        <g id="link-symbol-of-two-chains-links-linked" transform="translate(17.000000, 17.000000)" fill-rule="nonzero" fill="#FB3D42">
                            <path d="M28.2908075,12.3095652 L20.2999379,20.3001242 C18.092795,22.5075776 14.5168323,22.5075776 12.3095031,20.3001242 L9.64608696,17.6363975 L12.3095031,14.9732919 L14.9731056,17.6363975 C15.7088199,18.3706832 16.9025466,18.3721739 17.6368323,17.6363975 L25.6271429,9.64614907 C26.3610559,8.91130435 26.3610559,7.71658385 25.6271429,6.9815528 L22.9637267,4.31813665 C22.229441,3.58434783 21.0342857,3.58434783 20.2999379,4.31813665 L17.4472671,7.17130435 C16.1247826,6.39298137 14.6217391,6.05919255 13.1336646,6.15944099 L17.6368323,1.6547205 C19.8439752,-0.551552795 23.421677,-0.551552795 25.6271429,1.6547205 L28.2908696,4.31813665 C30.4980124,6.52453416 30.4980124,10.1032919 28.2908075,12.3095652 Z M12.4972671,22.7762733 L9.64614907,25.627205 C8.91043478,26.3629814 7.71670807,26.3611801 6.98273292,25.627205 L4.31913043,22.9637888 C3.58341615,22.2295652 3.58341615,21.0357764 4.31913043,20.3000621 L12.3095652,12.3095031 C13.0436646,11.5757143 14.2393168,11.5757143 14.9731677,12.3095031 L17.6368944,14.9732298 L20.3,12.3095031 L17.6368944,9.64608696 C15.429441,7.43981366 11.8534783,7.43981366 9.64621118,9.64608696 L1.65559006,17.6363975 C-0.55173913,19.8441615 -0.55173913,23.4218634 1.65559006,25.627205 L4.31913043,28.2906832 C6.5247205,30.4981366 10.1023602,30.4981366 12.3095652,28.2906832 L16.8124224,23.7876398 C15.324472,23.8868323 13.8253416,23.5526087 12.4972671,22.7762733 Z" id="Shape"></path>
                        </g>
                    </g>
                </g>
            </g>
        </g>
    </g>
</svg>