<?xml version="1.0" encoding="UTF-8"?>
<svg width="65px" height="65px" viewBox="0 0 65 65" version="1.1" xmlns="http://www.w3.org/2000/svg" xmlns:xlink="http://www.w3.org/1999/xlink">
    <!-- Generator: Sketch 46 (44423) - http://www.bohemiancoding.com/sketch -->
    <title>Group 12</title>
    <desc>Created with Sketch.</desc>
    <defs></defs>
    <g id="V2" stroke="none" stroke-width="1" fill="none" fill-rule="evenodd">
        <g id="Main-Page-2" transform="translate(-268.000000, -847.000000)">
            <g id="Always-Improving-Section" transform="translate(147.000000, 847.000000)">
                <g id="Toggle-Button-Copy" transform="translate(121.000000, 0.000000)">
                    <g id="Arrow-Button">
                        <g id="Group-12">
                            <circle id="Oval-9" fill="#FFB1B3" cx="32.5" cy="32.5" r="32.5"></circle>
                            <g id="flame" transform="translate(22.000000, 14.000000)" fill-rule="nonzero" fill="#FB3D42">
                                <path d="M5.82523856,35.5691682 C6.16903604,35.7541153 6.53169693,35.3536101 6.32120869,35.0221254 C5.17870608,33.222762 4.09681949,30.1949382 5.82052271,26.2955123 C8.69501003,19.792861 10.4441329,16.4249396 10.4441329,16.4249396 C10.4441329,16.4249396 11.3744794,20.3552676 13.8964277,23.8498818 C16.3236562,27.2132057 17.6522051,31.4431851 15.510401,34.9670138 C15.3094019,35.2977419 15.6638388,35.6879464 16.0053934,35.5110886 C18.6566252,34.1387095 21.6302605,31.385862 21.9657765,25.9077521 C22.0894814,24.2338011 21.9039527,21.8902464 20.9762517,18.9328981 C19.7834274,15.1847237 18.317026,13.435758 17.4685743,12.6846798 C17.2147807,12.4599849 16.8200864,12.6591318 16.8409052,12.999695 C17.0881427,17.0439709 15.5845894,18.0702581 14.7287764,15.7573727 C14.3869918,14.8335688 14.1876606,13.2357382 14.1876606,11.2898953 C14.1876606,8.05041251 13.2588668,4.71566282 11.2112073,2.00582225 C10.678718,1.30112636 10.0556498,0.642638126 9.34079488,0.0811045022 C9.08199785,-0.122232474 8.70685718,0.082152031 8.73055149,0.41282195 C8.88778506,2.60890785 8.74533168,8.90275176 3.28868264,16.4219134 C-1.65888388,23.3967674 0.258284489,28.7534222 0.938575605,30.2042496 C2.23923195,32.9836344 4.05345661,34.6158588 5.82523856,35.5691682 Z" id="Shape"></path>
                            </g>
                        </g>
                    </g>
                </g>
            </g>
        </g>
    </g>
</svg>