<?xml version="1.0" encoding="UTF-8"?>
<svg width="245px" height="72px" viewBox="0 0 245 72" version="1.1" xmlns="http://www.w3.org/2000/svg" xmlns:xlink="http://www.w3.org/1999/xlink">
    <!-- Generator: Sketch 45.2 (43514) - http://www.bohemiancoding.com/sketch -->
    <title>logo_h_colored</title>
    <desc>Created with Sketch.</desc>
    <defs></defs>
    <g id="Page-1" stroke="none" stroke-width="1" fill="none" fill-rule="evenodd">
        <g id="logo_h_colored">
            <g id="Group-2" transform="translate(-1.000000, 0.000000)">
                <path d="M73.890625,36 L73.890625,12.875 L81.953125,12.875 C84.7656391,12.875 86.7734315,13.3463495 87.9765625,14.2890625 C89.1796935,15.2317755 89.78125,16.8072806 89.78125,19.015625 C89.78125,21.5156375 88.9765705,23.4609305 87.3671875,24.8515625 C85.7578045,26.2421945 83.5052228,26.9375 80.609375,26.9375 L78.609375,26.9375 L78.609375,36 L73.890625,36 Z M78.609375,23.765625 L79.546875,23.765625 C81.1927166,23.765625 82.4921827,23.3828163 83.4453125,22.6171875 C84.3984423,21.8515587 84.875,20.8125066 84.875,19.5 C84.875,17.1979052 83.411473,16.046875 80.484375,16.046875 L78.609375,16.046875 L78.609375,23.765625 Z M100.71875,36.390625 C98.0416533,36.390625 95.9140704,35.5807373 94.3359375,33.9609375 C92.7578046,32.3411377 91.96875,30.161472 91.96875,27.421875 C91.96875,24.6510278 92.7630129,22.4635497 94.3515625,20.859375 C95.9401121,19.2552003 98.0989447,18.453125 100.828125,18.453125 C103.567722,18.453125 105.731763,19.2552003 107.320312,20.859375 C108.908862,22.4635497 109.703125,24.6406112 109.703125,27.390625 C109.703125,30.2031391 108.906258,32.406242 107.3125,34 C105.718742,35.593758 103.520847,36.390625 100.71875,36.390625 Z M100.796875,33.5 C103.453138,33.5 104.78125,31.463562 104.78125,27.390625 C104.78125,25.5260323 104.429691,24.0520887 103.726562,22.96875 C103.023434,21.8854113 102.057298,21.34375 100.828125,21.34375 C99.6093689,21.34375 98.648441,21.8854113 97.9453125,22.96875 C97.242184,24.0520887 96.890625,25.5364489 96.890625,27.421875 C96.890625,29.2864677 97.2395798,30.7656195 97.9375,31.859375 C98.6354202,32.9531305 99.5885356,33.5 100.796875,33.5 Z M126.609375,35.625 C124.692699,36.1354192 122.916675,36.390625 121.28125,36.390625 C118.541653,36.390625 116.377612,35.5859455 114.789062,33.9765625 C113.200513,32.3671795 112.40625,30.1770972 112.40625,27.40625 C112.40625,24.6041527 113.22395,22.4114663 114.859375,20.828125 C116.4948,19.2447838 118.755194,18.453125 121.640625,18.453125 C123.036465,18.453125 124.645824,18.6770811 126.46875,19.125 L126.46875,22.46875 C124.572907,21.8541636 123.057297,21.546875 121.921875,21.546875 C120.536451,21.546875 119.421879,22.0781197 118.578125,23.140625 C117.734371,24.2031303 117.3125,25.6145745 117.3125,27.375 C117.3125,29.1770923 117.768225,30.6197863 118.679688,31.703125 C119.59115,32.7864637 120.807284,33.328125 122.328125,33.328125 C123.713549,33.328125 125.140618,33.0260447 126.609375,32.421875 L126.609375,35.625 Z M143.640625,35.625 C141.723949,36.1354192 139.947925,36.390625 138.3125,36.390625 C135.572903,36.390625 133.408862,35.5859455 131.820312,33.9765625 C130.231763,32.3671795 129.4375,30.1770972 129.4375,27.40625 C129.4375,24.6041527 130.2552,22.4114663 131.890625,20.828125 C133.52605,19.2447838 135.786444,18.453125 138.671875,18.453125 C140.067715,18.453125 141.677074,18.6770811 143.5,19.125 L143.5,22.46875 C141.604157,21.8541636 140.088547,21.546875 138.953125,21.546875 C137.567701,21.546875 136.453129,22.0781197 135.609375,23.140625 C134.765621,24.2031303 134.34375,25.6145745 134.34375,27.375 C134.34375,29.1770923 134.799475,30.6197863 135.710938,31.703125 C136.6224,32.7864637 137.838534,33.328125 139.359375,33.328125 C140.744799,33.328125 142.171868,33.0260447 143.640625,32.421875 L143.640625,35.625 Z M156.421875,34.15625 C154.880201,35.6458408 153.229175,36.390625 151.46875,36.390625 C149.968742,36.390625 148.750005,35.9322963 147.8125,35.015625 C146.874995,34.0989537 146.40625,32.9114656 146.40625,31.453125 C146.40625,29.5572822 147.164055,28.0963593 148.679688,27.0703125 C150.19532,26.0442657 152.364569,25.53125 155.1875,25.53125 L156.421875,25.53125 L156.421875,23.96875 C156.421875,22.1874911 155.40626,21.296875 153.375,21.296875 C151.572908,21.296875 149.750009,21.8072866 147.90625,22.828125 L147.90625,19.640625 C150.00001,18.8489544 152.072906,18.453125 154.125,18.453125 C158.614606,18.453125 160.859375,20.2395655 160.859375,23.8125 L160.859375,31.40625 C160.859375,32.7500067 161.291662,33.421875 162.15625,33.421875 C162.312501,33.421875 162.515624,33.4010419 162.765625,33.359375 L162.875,35.953125 C161.895828,36.2447931 161.031254,36.390625 160.28125,36.390625 C158.385407,36.390625 157.166669,35.6458408 156.625,34.15625 L156.421875,34.15625 Z M156.421875,31.671875 L156.421875,28.1875 L155.328125,28.1875 C152.338527,28.1875 150.84375,29.1249906 150.84375,31 C150.84375,31.6354198 151.059894,32.1692687 151.492188,32.6015625 C151.924481,33.0338563 152.45833,33.25 153.09375,33.25 C154.177089,33.25 155.286453,32.7239636 156.421875,31.671875 Z M174.78125,36 L174.78125,32.59375 C176.364591,32.4791661 177.468747,31.9296924 178.09375,30.9453125 C178.718753,29.9609326 179.088541,28.1927211 179.203125,25.640625 L179.390625,21.546875 C179.432292,20.7239542 179.453125,19.3020934 179.453125,17.28125 L179.453125,12.875 L194.96875,12.875 L194.96875,36 L190.140625,36 L190.140625,16.046875 L183.984375,16.046875 L183.984375,17.875 C183.984375,24.875035 183.63542,29.3229072 182.9375,31.21875 C182.33333,32.8541748 181.429694,34.023434 180.226562,34.7265625 C179.023431,35.429691 177.208345,35.8541659 174.78125,36 Z M206.484375,36 L206.484375,16.046875 L198.203125,16.046875 L198.203125,12.875 L219.59375,12.875 L219.59375,16.046875 L211.3125,16.046875 L211.3125,36 L206.484375,36 Z M220.90625,40.625 L220.90625,32.71875 L222.703125,32.71875 C224.255216,30.5937394 225.419267,28.1041809 226.195312,25.25 C226.971358,22.3958191 227.359375,19.171893 227.359375,15.578125 L227.359375,12.875 L241.9375,12.875 L241.9375,32.71875 L245.125,32.71875 L245.125,40.625 L240.453125,40.625 L240.453125,36 L225.578125,36 L225.578125,40.625 L220.90625,40.625 Z M237.3125,32.71875 L237.3125,15.90625 L231.703125,15.90625 L231.703125,16.296875 C231.703125,19.5781414 231.320316,22.718735 230.554688,25.71875 C229.789059,28.718765 228.776048,31.052075 227.515625,32.71875 L237.3125,32.71875 Z" id="Росса-ЛТД" fill="#4E4E4E"></path>
                <path d="M77.6386719,55.1464844 C76.7792926,55.1464844 76.0664091,54.8281282 75.5,54.1914062 C74.9335909,53.5546843 74.6503906,52.751958 74.6503906,51.7832031 C74.6503906,50.7480417 74.9306613,49.9414091 75.4912109,49.3632812 C76.0517606,48.7851534 76.8339794,48.4960938 77.8378906,48.4960938 C78.3339869,48.4960938 78.8886688,48.5644524 79.5019531,48.7011719 L79.5019531,49.6679688 C78.8496061,49.4765615 78.3183614,49.3808594 77.9082031,49.3808594 C77.3183564,49.3808594 76.8447283,49.6025368 76.4873047,50.0458984 C76.129881,50.48926 75.9511719,51.0800744 75.9511719,51.8183594 C75.9511719,52.5332067 76.1347638,53.1113259 76.5019531,53.5527344 C76.8691425,53.9941428 77.3496064,54.2148438 77.9433594,54.2148438 C78.4707058,54.2148438 79.0136691,54.0800795 79.5722656,53.8105469 L79.5722656,54.8066406 C78.8261681,55.0332043 78.1816433,55.1464844 77.6386719,55.1464844 Z M82.7007812,55 L82.7007812,48.6367188 L83.7847656,48.6367188 L83.7847656,53.453125 L86.7496094,48.6367188 L87.9039062,48.6367188 L87.9039062,55 L86.8199219,55 L86.8199219,50.1835938 L83.8609375,55 L82.7007812,55 Z M94.1027343,55.1464844 C93.243355,55.1464844 92.5304715,54.8281282 91.9640625,54.1914062 C91.3976534,53.5546843 91.1144531,52.751958 91.1144531,51.7832031 C91.1144531,50.7480417 91.3947237,49.9414091 91.9552734,49.3632812 C92.5158231,48.7851534 93.2980418,48.4960938 94.3019531,48.4960938 C94.7980493,48.4960938 95.3527313,48.5644524 95.9660156,48.7011719 L95.9660156,49.6679688 C95.3136686,49.4765615 94.7824239,49.3808594 94.3722656,49.3808594 C93.7824189,49.3808594 93.3087908,49.6025368 92.9513671,50.0458984 C92.5939435,50.48926 92.4152343,51.0800744 92.4152343,51.8183594 C92.4152343,52.5332067 92.5988262,53.1113259 92.9660156,53.5527344 C93.3332049,53.9941428 93.8136689,54.2148438 94.4074218,54.2148438 C94.9347682,54.2148438 95.4777315,54.0800795 96.0363281,53.8105469 L96.0363281,54.8066406 C95.2902306,55.0332043 94.6457058,55.1464844 94.1027343,55.1464844 Z M100.401172,55 L100.401172,49.5625 L98.1570312,49.5625 L98.1570312,48.6367188 L103.799609,48.6367188 L103.799609,49.5625 L101.555469,49.5625 L101.555469,55 L100.401172,55 Z M111.158594,54.7949219 C110.385152,55.029298 109.72305,55.1464844 109.172266,55.1464844 C108.234761,55.1464844 107.47012,54.8349641 106.87832,54.2119141 C106.28652,53.5888641 105.990625,52.781255 105.990625,51.7890625 C105.990625,50.8242139 106.251364,50.0332062 106.772851,49.4160156 C107.294338,48.798825 107.961324,48.4902344 108.773828,48.4902344 C109.543363,48.4902344 110.138084,48.7636691 110.558008,49.3105469 C110.977932,49.8574246 111.187891,50.6347606 111.187891,51.6425781 L111.182031,52 L107.168359,52 C107.336329,53.5117263 108.076556,54.2675781 109.389062,54.2675781 C109.869534,54.2675781 110.459371,54.1386732 111.158594,53.8808594 L111.158594,54.7949219 Z M107.221094,51.1328125 L110.027734,51.1328125 C110.027734,49.9492128 109.586332,49.3574219 108.703516,49.3574219 C107.816792,49.3574219 107.322657,49.9492128 107.221094,51.1328125 Z M114.580078,55 L114.580078,48.6367188 L115.839844,48.6367188 L117.75,53.6113281 L117.761719,53.6113281 L119.636719,48.6367188 L120.978516,48.6367188 L120.978516,55 L119.818359,55 L119.818359,50.1660156 L119.806641,50.1660156 L118.154297,54.5664062 L117.041016,54.5664062 L115.494141,50.5820312 L115.482422,50.5820312 L115.482422,55 L114.580078,55 Z M124.692969,55 L124.692969,48.6367188 L125.776953,48.6367188 L125.776953,53.453125 L128.741797,48.6367188 L129.896094,48.6367188 L129.896094,55 L128.812109,55 L128.812109,50.1835938 L125.853125,55 L124.692969,55 Z M139.457812,50.0371094 C140.051565,49.103511 140.826948,48.6367188 141.783984,48.6367188 C142.51055,48.6367188 143.095505,48.9238253 143.538867,49.4980469 C143.982229,50.0722685 144.203906,50.8281203 144.203906,51.765625 C144.203906,52.7773488 143.930471,53.5937469 143.383594,54.2148438 C142.836716,54.8359406 142.117973,55.1464844 141.227344,55.1464844 C140.250776,55.1464844 139.519338,54.7900426 139.033008,54.0771484 C138.546677,53.3642542 138.303515,52.294929 138.303515,50.8691406 C138.303515,49.0761629 138.574021,47.7744181 139.115039,46.9638672 C139.656057,46.1533163 140.524213,45.7480469 141.719531,45.7480469 L141.965625,45.7480469 C142.539846,45.7480469 143.055466,45.6445323 143.5125,45.4375 L143.5125,46.3691406 C143.149217,46.5332039 142.678518,46.6152344 142.10039,46.6152344 L141.959765,46.6152344 C141.108199,46.6152344 140.501759,46.8623022 140.140429,47.3564453 C139.7791,47.8505884 139.551563,48.7441342 139.457812,50.0371094 Z M139.469531,50.8398438 L139.463672,51.0449219 C139.463672,52.1230523 139.616014,52.9316379 139.920703,53.4707031 C140.225392,54.0097683 140.682419,54.2792969 141.291797,54.2792969 C141.807424,54.2792969 142.2166,54.058596 142.519336,53.6171875 C142.822072,53.175779 142.973437,52.582035 142.973437,51.8359375 C142.973437,51.1210902 142.847462,50.5839862 142.595508,50.2246094 C142.343553,49.8652326 141.96758,49.6855469 141.467578,49.6855469 C140.760543,49.6855469 140.094534,50.0703087 139.469531,50.8398438 Z M152.025781,54.7949219 C151.25234,55.029298 150.590237,55.1464844 150.039453,55.1464844 C149.101948,55.1464844 148.337307,54.8349641 147.745508,54.2119141 C147.153708,53.5888641 146.857812,52.781255 146.857812,51.7890625 C146.857812,50.8242139 147.118552,50.0332062 147.640039,49.4160156 C148.161526,48.798825 148.828511,48.4902344 149.641015,48.4902344 C150.410551,48.4902344 151.005271,48.7636691 151.425195,49.3105469 C151.845119,49.8574246 152.055078,50.6347606 152.055078,51.6425781 L152.049219,52 L148.035547,52 C148.203516,53.5117263 148.943743,54.2675781 150.25625,54.2675781 C150.736721,54.2675781 151.326559,54.1386732 152.025781,53.8808594 L152.025781,54.7949219 Z M148.088281,51.1328125 L150.894922,51.1328125 C150.894922,49.9492128 150.45352,49.3574219 149.570703,49.3574219 C148.68398,49.3574219 148.189844,49.9492128 148.088281,51.1328125 Z M154.796875,54.8710938 L154.796875,53.8984375 C155.406253,54.1328137 156.0332,54.25 156.677734,54.25 C157.126955,54.25 157.491209,54.147462 157.770508,53.9423828 C158.049806,53.7373037 158.189453,53.4707048 158.189453,53.1425781 C158.189453,52.7558574 158.035158,52.4658213 157.726562,52.2724609 C157.417967,52.0791006 156.955081,51.9824219 156.33789,51.9824219 L156.185547,51.9824219 L156.185547,51.2207031 L156.378906,51.2207031 C156.925784,51.2207031 157.336912,51.1435555 157.612304,50.9892578 C157.887696,50.8349602 158.02539,50.6035172 158.02539,50.2949219 C158.02539,49.9902329 157.902345,49.760743 157.65625,49.6064453 C157.410155,49.4521477 157.041018,49.375 156.548828,49.375 C156.056638,49.375 155.509768,49.4824208 154.908203,49.6972656 L154.908203,48.765625 C155.466799,48.5859366 156.083981,48.4960938 156.759765,48.4960938 C157.525394,48.4960938 158.124021,48.6328111 158.555664,48.90625 C158.987307,49.1796889 159.203125,49.5605444 159.203125,50.0488281 C159.203125,50.3574234 159.105469,50.6396472 158.910156,50.8955078 C158.714843,51.1513685 158.42383,51.3828115 158.037109,51.5898438 C158.490236,51.7304695 158.831053,51.9306628 159.05957,52.1904297 C159.288087,52.4501966 159.402344,52.7695294 159.402344,53.1484375 C159.402344,53.7226591 159.139651,54.1992169 158.614258,54.578125 C158.088864,54.9570331 157.429691,55.1464844 156.636719,55.1464844 C156.121091,55.1464844 155.507816,55.0546884 154.796875,54.8710938 Z M162.61289,55 L162.61289,48.6367188 L167.816015,48.6367188 L167.816015,55 L166.661718,55 L166.661718,49.5625 L163.767187,49.5625 L163.767187,55 L162.61289,55 Z M176.194531,54.7949219 C175.42109,55.029298 174.758987,55.1464844 174.208203,55.1464844 C173.270698,55.1464844 172.506057,54.8349641 171.914258,54.2119141 C171.322458,53.5888641 171.026562,52.781255 171.026562,51.7890625 C171.026562,50.8242139 171.287302,50.0332062 171.808789,49.4160156 C172.330276,48.798825 172.997261,48.4902344 173.809765,48.4902344 C174.5793,48.4902344 175.174021,48.7636691 175.593945,49.3105469 C176.013869,49.8574246 176.223828,50.6347606 176.223828,51.6425781 L176.217968,52 L172.204297,52 C172.372266,53.5117263 173.112493,54.2675781 174.425,54.2675781 C174.905471,54.2675781 175.495309,54.1386732 176.194531,53.8808594 L176.194531,54.7949219 Z M172.257031,51.1328125 L175.063672,51.1328125 C175.063672,49.9492128 174.62227,49.3574219 173.739453,49.3574219 C172.85273,49.3574219 172.358594,49.9492128 172.257031,51.1328125 Z M179.616015,55 L179.616015,48.6367188 L180.770312,48.6367188 L180.776172,51.4199219 C181.315237,51.4199219 181.660936,51.367188 181.813281,51.2617188 C181.965625,51.1562495 182.205857,50.8027374 182.533984,50.2011719 L182.686328,49.9316406 C182.991017,49.3769504 183.256639,49.0224617 183.483203,48.8681641 C183.709766,48.7138664 184.08281,48.6367188 184.602343,48.6367188 L184.602343,49.5039062 L184.53789,49.5039062 C184.287889,49.5039062 184.097461,49.5605463 183.966601,49.6738281 C183.835741,49.7871099 183.662891,50.0429668 183.448047,50.4414062 L183.348437,50.6289062 C183.117967,51.0546896 182.946094,51.3261713 182.832812,51.4433594 C182.71953,51.5605475 182.500783,51.6874993 182.176562,51.8242188 C182.481251,51.9062504 182.69414,52.000976 182.815234,52.1083984 C182.936328,52.2158208 183.158982,52.5078101 183.483203,52.984375 L183.758593,53.3828125 L183.998828,53.734375 L184.303515,54.1855469 C184.397266,54.3261726 184.530077,54.5156238 184.701953,54.7539062 L184.877734,55 L183.623828,55 L183.448047,54.7597656 C183.198045,54.4199202 182.934376,54.046877 182.657031,53.640625 C182.309373,53.1367162 181.969533,52.6855489 181.6375,52.2871094 L180.770312,52.2871094 L180.770312,55 L179.616015,55 Z M187.760156,55 L187.760156,48.6367188 L188.84414,48.6367188 L188.84414,53.453125 L191.808984,48.6367188 L192.963281,48.6367188 L192.963281,55 L191.879297,55 L191.879297,50.1835938 L188.920312,55 L187.760156,55 Z" id="системи-безпеки" fill="#4E4E4E"></path>
                <path d="M26.4061239,53.0479467 L25.1161732,64.012528 C25.0514483,64.5626893 25.446616,65 25.9975446,65 L33.0024554,65 C33.5536886,65 33.9479875,64.5578937 33.8838268,64.012528 L32.5938761,53.0479467 C34.0463351,52.0579521 35,50.3903463 35,48.5 C35,45.4624339 32.5375661,43 29.5,43 C26.4624339,43 24,45.4624339 24,48.5 C24,50.3903463 24.9536649,52.0579521 26.4061239,53.0479467 Z M29.4549769,30 L55.0438686,52.2462845 C54.2334079,54.1453515 52.1708694,57.7053575 47.0530104,62.1947074 C39.3066608,68.9897509 31.3419876,71.3385773 31.3419876,71.3385773 C30.2998204,71.703871 28.6096384,71.6910246 27.5804547,71.2919447 C27.5804547,71.2919447 18.8751631,68.3510406 12.2049769,62.5 C7.661813,58.5147685 5.30643668,54.4598218 4.26623194,52.2789473 L29.4549769,30 Z" id="Combined-Shape" fill="#FB3D42"></path>
                <path d="M29.4549769,14 L57.1570276,38.1097672 C57.1322744,39.1989096 57.0951445,40.8326233 57.0456381,43.0109081 C57.0278108,43.795307 56.9399192,44.7426001 56.7959003,45.7290507 L31.4596788,23.3682236 L31.4596788,23.3682236 C30.3186066,22.3611548 28.6042444,22.3680705 27.4713341,23.3843124 L2.22490828,46.0308332 C2.0163896,44.9382206 1.88393061,43.8739638 1.86411248,43.0019664 C1.81857218,40.9981931 1.78441695,39.4953631 1.7616468,38.4934764 L29.4549769,14 Z" id="Combined-Shape" fill="#FB3D42"></path>
                <path d="M16,17.8750884 L27.4888157,7.7383739 C28.6166124,6.74330591 30.3069244,6.73713331 31.4419584,7.723938 L31.4419584,7.723938 L57.3359693,30.2363316 L57.9170168,4.67024349 C57.9390947,3.69881407 57.2597651,2.85206944 56.306653,2.66301935 L56.306653,2.66301943 C47.3560943,0.887673144 38.4055356,-2.84217094e-14 29.4549769,-2.84217094e-14 C20.5044181,-2.74854979e-14 11.5538594,0.887673149 2.60330067,2.66301945 L2.60330067,2.66301945 C1.65018862,2.85206954 0.970858988,3.69881414 0.992936929,4.67024354 L0.992936964,4.67024354 L1.45497688,25 L1.58216128,30.5961135 L10.0128356,23.1576325 C10.0043901,23.1054035 10,23.0519152 10,22.9975267 L10,13.0024733 C10,12.4488226 10.4509752,12 10.990778,12 L15.009222,12 C15.5564136,12 16,12.455761 16,13.0024733 L16,17.8750884 Z" id="Combined-Shape" fill="#FB3D42"></path>
            </g>
        </g>
    </g>
</svg>